<svg id="Слой_1" data-name="Слой 1" xmlns="http://www.w3.org/2000/svg" xmlns:xlink="http://www.w3.org/1999/xlink" width="443.15" height="498.87" viewBox="0 0 443.15 498.87"><defs><linearGradient id="linear-gradient" x1="260.96" y1="17.88" x2="13.32" y2="342.57" gradientTransform="matrix(1, 0, 0, -1, 11.39, 491.64)" gradientUnits="userSpaceOnUse"><stop offset="0" stop-color="#534ec4"/><stop offset="0.52" stop-color="#e0518a"/><stop offset="1" stop-color="#f7ab34"/></linearGradient><clipPath id="clip-path" transform="translate(11.39 8.19)"><polygon points="167.13 103.51 167.13 457.9 126.62 434.77 126.62 173.31 103.83 186.32 103.83 421.75 63.32 398.62 63.32 209.46 40.52 222.47 40.52 385.6 0 362.47 0 198.95 40.52 175.81 63.32 162.78 103.83 139.66 126.62 126.63 167.13 103.51" fill="none"/></clipPath><linearGradient id="linear-gradient-2" x1="337.03" y1="75.9" x2="89.38" y2="400.59" xlink:href="#linear-gradient"/><linearGradient id="linear-gradient-3" x1="370.45" y1="109.72" x2="131.98" y2="430.74" xlink:href="#linear-gradient"/><clipPath id="clip-path-2" transform="translate(11.39 8.19)"><polygon points="253.24 103.51 253.24 457.9 293.75 434.77 293.75 173.31 316.53 186.32 316.53 421.75 357.05 398.62 357.05 209.46 379.85 222.47 379.85 385.6 420.36 362.47 420.36 198.95 379.85 175.81 357.05 162.78 316.53 139.66 293.75 126.63 253.24 103.51" fill="none"/></clipPath><linearGradient id="linear-gradient-4" x1="330.6" y1="80.11" x2="92.12" y2="401.13" xlink:href="#linear-gradient"/><linearGradient id="linear-gradient-5" x1="363.2" y1="106.7" x2="133.9" y2="427.72" xlink:href="#linear-gradient"/></defs><polygon points="178.52 111.7 178.52 466.09 138.01 442.96 138.01 181.5 115.22 194.51 115.22 429.94 74.71 406.81 74.71 217.65 51.91 230.66 51.91 393.79 11.39 370.66 11.39 207.14 51.91 184 74.71 170.97 115.22 147.85 138.01 134.82 178.52 111.7" fill="url(#linear-gradient)"/><g clip-path="url(#clip-path)"><rect width="443.15" height="498.86" fill="url(#linear-gradient-2)"/></g><polygon points="264.63 111.7 264.63 466.09 305.14 442.96 305.14 181.5 327.92 194.51 327.92 429.94 368.44 406.81 368.44 217.65 391.24 230.66 391.24 393.79 431.75 370.66 431.75 207.14 391.24 184 368.44 170.97 327.92 147.85 305.14 134.82 264.63 111.7" fill="url(#linear-gradient-3)"/><g clip-path="url(#clip-path-2)"><rect y="0.01" width="443.15" height="498.86" fill="url(#linear-gradient-4)"/></g><polygon points="431.75 128.21 431.75 174.87 391.24 151.73 368.46 138.72 327.94 115.59 305.14 102.57 290.67 94.31 264.63 79.44 249.83 70.97 241.84 66.42 241.84 479.11 221.57 490.68 201.33 479.12 201.33 66.42 193.34 70.97 178.52 79.44 152.5 94.31 138.01 102.57 115.22 115.59 74.71 138.72 51.91 151.75 11.39 174.89 11.39 128.21 51.91 105.09 74.71 92.06 111.64 70.97 115.22 68.93 138.01 55.91 152.5 47.65 178.52 32.78 180.73 31.53 201.33 19.74 221.59 8.19 241.84 19.74 262.44 31.53 264.63 32.76 290.67 47.65 305.14 55.89 327.94 68.93 331.53 70.97 368.46 92.06 391.24 105.08 431.75 128.21" fill="url(#linear-gradient-5)"/></svg>