<?xml version="1.0" standalone="no"?>
<!DOCTYPE svg PUBLIC "-//W3C//DTD SVG 20010904//EN"
 "http://www.w3.org/TR/2001/REC-SVG-20010904/DTD/svg10.dtd">
<svg version="1.0" xmlns="http://www.w3.org/2000/svg"
 width="998.000000pt" height="998.000000pt" viewBox="0 0 998.000000 998.000000"
 preserveAspectRatio="xMidYMid meet">
<metadata>
Created by potrace 1.14, written by Peter Selinger 2001-2017
</metadata>
<g transform="translate(0.000000,998.000000) scale(0.100000,-0.100000)"
fill="#000000" stroke="none">
<path d="M4960 9799 c-19 -10 -39 -22 -45 -27 -5 -4 -25 -15 -42 -22 -18 -8
-33 -17 -33 -21 0 -3 -16 -11 -35 -19 -19 -8 -35 -17 -35 -22 0 -4 -4 -8 -9
-8 -5 0 -68 -34 -141 -75 -73 -41 -136 -75 -140 -75 -5 0 -10 -3 -12 -8 -2 -6
-339 -201 -443 -256 -11 -6 -22 -13 -25 -16 -5 -5 -67 -40 -125 -69 -16 -9
-32 -19 -35 -22 -3 -4 -15 -9 -27 -13 -13 -4 -23 -11 -23 -16 0 -5 -16 -14
-35 -20 -19 -6 -35 -15 -35 -19 0 -4 -16 -13 -35 -21 -19 -8 -35 -17 -35 -22
0 -4 -4 -8 -8 -8 -7 0 -154 -81 -202 -111 -56 -35 -334 -189 -341 -189 -5 0
-9 -4 -9 -10 0 -5 -4 -10 -9 -10 -5 0 -48 -22 -96 -50 -48 -27 -90 -50 -95
-50 -4 0 -13 -7 -20 -15 -7 -8 -16 -13 -20 -10 -5 3 -10 1 -12 -3 -3 -9 -287
-172 -300 -172 -4 0 -8 -4 -8 -9 0 -5 -8 -12 -19 -16 -16 -5 -103 -53 -316
-177 -27 -16 -61 -34 -75 -41 -14 -6 -27 -14 -30 -17 -4 -4 -28 -18 -115 -64
-11 -6 -22 -14 -25 -17 -3 -4 -32 -21 -65 -39 -33 -17 -78 -42 -100 -55 -233
-134 -379 -215 -385 -215 -5 0 -10 -4 -12 -8 -1 -5 -39 -28 -83 -52 -44 -24
-92 -52 -108 -62 -15 -11 -27 -16 -27 -11 0 4 -4 3 -8 -3 -4 -6 -70 -46 -147
-89 -77 -44 -143 -84 -147 -90 -4 -5 -8 -6 -8 -1 0 5 -8 2 -17 -6 -10 -8 -26
-18 -35 -21 -10 -4 -18 -14 -19 -24 0 -10 -1 -221 -2 -470 l-2 -452 75 41 c41
23 80 44 85 48 6 5 28 18 50 30 22 13 63 36 90 52 28 16 61 34 75 41 14 6 27
14 30 18 3 3 19 12 35 21 33 16 94 51 140 79 17 11 37 22 45 26 8 3 31 16 50
28 19 12 62 37 95 55 33 18 74 41 90 51 17 10 53 30 80 45 28 14 62 35 77 45
14 11 28 19 31 19 3 0 43 23 90 50 47 28 90 50 95 50 6 0 12 4 14 8 2 5 39 28
83 53 44 24 88 48 97 54 9 5 29 17 45 26 15 8 109 62 208 119 247 143 258 149
273 156 13 6 203 115 307 176 28 16 61 34 75 41 14 6 27 14 30 17 3 3 48 29
100 58 52 29 102 57 110 62 91 54 193 110 200 110 6 0 10 5 10 10 0 6 4 10 9
10 4 0 79 41 165 90 86 50 161 90 166 90 6 0 10 5 10 10 0 6 4 10 9 10 6 0 58
28 118 63 59 35 115 66 123 70 8 4 31 17 50 28 50 30 237 137 290 167 25 14
51 29 58 35 6 5 13 6 13 1 1 -5 2 -1862 3 -4127 l1 -4118 25 -19 c13 -10 28
-16 32 -14 4 3 8 0 8 -5 0 -6 4 -11 9 -11 5 0 55 -27 111 -60 56 -33 103 -60
105 -60 3 0 26 -14 52 -31 36 -23 55 -29 78 -24 16 3 31 9 35 13 5 8 163 100
280 164 30 16 59 34 65 39 7 7 10 1397 10 4129 0 2266 2 4121 5 4123 4 1 220
-118 322 -178 27 -16 139 -80 193 -110 28 -16 67 -39 87 -52 21 -12 39 -23 42
-23 2 0 46 -25 97 -55 52 -30 100 -55 107 -55 6 0 12 -4 12 -9 0 -5 19 -18 43
-30 23 -12 60 -33 82 -46 22 -13 47 -27 55 -31 8 -4 52 -29 97 -56 45 -26 84
-48 87 -48 2 0 40 -21 83 -48 43 -26 89 -53 103 -59 14 -7 43 -24 65 -37 22
-14 54 -32 70 -41 17 -8 44 -23 60 -32 78 -46 123 -72 155 -90 103 -58 537
-307 557 -320 13 -9 23 -11 23 -7 0 5 5 1 11 -8 5 -10 15 -18 20 -18 6 0 52
-25 104 -55 52 -31 97 -55 101 -55 4 1 10 -2 13 -7 8 -10 39 -30 69 -43 12 -5
47 -26 77 -45 31 -19 57 -35 60 -35 2 0 122 -68 267 -151 256 -148 303 -174
391 -223 23 -13 66 -37 95 -55 29 -17 57 -31 62 -31 6 0 10 -3 10 -8 0 -4 17
-15 38 -25 54 -27 100 -53 117 -67 13 -11 15 -8 16 21 1 43 1 880 0 895 -1 11
-173 114 -190 114 -5 0 -11 4 -13 8 -1 4 -34 25 -73 47 -79 43 -63 34 -325
184 -107 61 -197 111 -201 111 -4 0 -9 3 -11 8 -1 4 -21 17 -43 28 -22 12
-164 92 -315 179 -151 87 -288 166 -305 175 -16 9 -100 56 -185 105 -85 48
-165 94 -177 101 -13 8 -25 13 -27 12 -2 -2 -12 4 -22 13 -11 9 -39 27 -64 40
-25 13 -47 26 -50 29 -3 3 -18 12 -35 20 -16 8 -58 32 -92 53 -35 20 -65 37
-69 37 -3 0 -18 8 -32 18 -24 17 -74 45 -172 98 -19 11 -37 22 -40 25 -3 3
-36 23 -75 44 -83 46 -83 46 -298 169 -92 53 -172 96 -176 96 -5 0 -11 4 -13
8 -1 4 -34 25 -73 47 -102 56 -124 69 -183 104 -29 17 -57 31 -62 31 -6 0 -10
5 -10 10 0 6 -4 10 -10 10 -5 0 -82 42 -172 94 -90 51 -179 102 -198 113 -19
11 -115 66 -213 121 -97 56 -181 102 -186 102 -5 0 -11 4 -13 8 -1 4 -19 17
-38 28 -35 20 -37 20 -70 3z"/>
<path d="M3867 7890 c-14 -11 -28 -20 -30 -20 -3 0 -71 -38 -151 -84 -80 -46
-146 -81 -146 -78 0 4 -4 2 -8 -4 -4 -6 -27 -21 -52 -34 -25 -14 -52 -30 -60
-36 -8 -6 -37 -24 -65 -38 -27 -15 -57 -31 -65 -37 -8 -5 -58 -33 -110 -63
-272 -153 -337 -190 -362 -207 -15 -11 -29 -19 -32 -19 -4 0 -227 -127 -297
-169 -19 -12 -41 -24 -49 -28 -8 -4 -37 -20 -65 -36 -27 -17 -68 -40 -90 -52
-22 -12 -83 -46 -135 -77 -52 -30 -102 -58 -110 -61 -8 -4 -28 -16 -45 -27
-16 -11 -43 -26 -60 -35 -16 -8 -46 -24 -65 -36 -107 -65 -560 -320 -566 -319
-4 1 -10 -2 -13 -7 -5 -8 -332 -198 -371 -216 -8 -4 -28 -16 -45 -27 -16 -11
-43 -26 -60 -35 -16 -8 -46 -24 -65 -36 -19 -11 -70 -41 -112 -66 l-78 -45 0
-1633 0 -1633 28 -18 c15 -10 43 -27 62 -37 91 -48 140 -82 137 -95 -1 -8 12
-23 28 -32 17 -9 50 -29 75 -44 25 -14 83 -47 130 -73 47 -26 87 -49 90 -52 3
-3 19 -13 35 -21 26 -13 156 -87 220 -125 11 -7 23 -12 26 -11 4 1 15 -6 25
-15 19 -16 166 -99 176 -99 3 0 5 721 6 1603 0 881 1 1615 1 1630 1 17 8 30
19 34 9 4 19 9 22 13 3 3 21 14 40 23 50 25 97 52 115 67 9 7 19 10 23 6 4 -4
7 -789 7 -1744 l1 -1736 114 -65 c75 -43 114 -71 113 -81 -3 -14 76 -70 98
-70 5 0 9 -4 9 -10 0 -5 5 -10 10 -10 6 0 73 -35 148 -79 153 -88 179 -103
272 -155 36 -21 69 -42 74 -47 6 -5 18 -9 28 -9 10 0 18 -5 18 -10 0 -6 11
-15 25 -20 13 -5 42 -21 64 -35 22 -14 46 -25 53 -25 11 0 13 457 13 2349 l-1
2349 61 35 c125 72 157 88 162 84 3 -3 5 -1113 5 -2466 l0 -2460 26 -14 c116
-61 189 -109 204 -137 10 -17 22 -28 28 -25 5 3 10 2 10 -3 0 -5 12 -15 28
-23 15 -7 50 -28 79 -45 28 -18 54 -30 57 -27 3 4 6 1 6 -5 0 -7 4 -12 9 -12
5 0 55 -27 111 -60 56 -33 103 -60 105 -60 3 0 160 -90 202 -116 13 -8 26 -15
30 -15 5 -1 19 -10 32 -20 13 -11 30 -19 37 -19 8 0 14 -4 14 -8 0 -4 13 -13
30 -19 l29 -11 0 347 c0 190 1 351 2 356 1 6 1 13 0 17 -2 13 -2 612 0 623 1
6 1 14 0 18 -1 5 -1 1293 -1 2863 0 1570 -3 2854 -6 2854 -4 0 -29 -13 -56
-30 -26 -16 -50 -30 -53 -30 -3 0 -27 -13 -53 -30 -27 -16 -52 -30 -56 -30 -4
0 -6 63 -5 140 1 77 0 143 -3 145 -3 3 -16 -4 -31 -15z"/>
<path d="M5623 4364 l0 -3543 56 31 c126 70 163 89 168 85 2 -3 4 -63 4 -133
0 -71 3 -132 6 -137 3 -4 16 -1 30 8 14 9 50 31 82 47 31 17 63 37 72 44 8 8
19 14 23 14 4 0 21 9 37 21 16 11 29 18 29 15 0 -3 25 10 55 29 30 19 56 35
58 35 3 0 35 18 71 40 36 22 70 40 76 40 5 0 10 4 10 8 0 4 12 13 28 19 29 13
103 55 170 97 23 14 46 26 52 26 7 0 10 846 10 2620 l0 2620 38 -22 c20 -12
46 -26 57 -32 11 -7 45 -26 76 -44 l57 -33 -2 -2334 c-1 -1551 2 -2335 9
-2335 6 0 36 16 68 35 32 19 62 35 67 35 4 0 10 3 12 7 5 13 67 43 71 35 2 -4
3 -67 3 -139 -1 -98 2 -133 11 -133 7 0 36 14 65 31 78 47 166 97 255 146 35
19 65 39 69 44 3 5 14 9 24 9 10 0 20 4 22 8 3 7 266 161 338 198 l26 13 -1
1882 c0 1034 3 1885 6 1890 5 9 171 -78 177 -93 2 -4 10 -8 17 -8 8 0 18 -8
23 -17 4 -10 8 -739 8 -1620 -1 -882 1 -1603 4 -1603 3 0 25 12 50 27 131 76
163 93 168 88 3 -3 5 -66 4 -140 -1 -81 3 -135 9 -135 5 0 27 11 49 25 22 14
42 25 46 25 3 0 18 8 32 19 15 10 50 31 77 45 28 15 73 41 100 57 28 17 58 33
68 36 9 3 17 9 17 13 0 5 10 12 21 15 12 4 71 36 132 71 60 35 114 64 118 64
5 0 9 3 9 8 0 4 15 13 33 21 17 8 34 17 37 20 3 4 17 12 33 18 17 8 27 21 28
35 0 13 1 748 1 1635 1 1388 -1 1613 -14 1625 -7 7 -29 21 -48 32 -19 10 -51
28 -70 39 -19 11 -48 27 -65 37 -16 9 -30 24 -30 34 0 10 -40 39 -114 81 -62
36 -115 65 -117 65 -3 0 -23 12 -47 27 -23 15 -62 38 -86 51 -24 13 -58 33
-75 43 -17 11 -43 25 -58 31 -16 7 -28 16 -28 20 0 4 -5 8 -11 8 -6 0 -48 23
-95 50 -47 28 -87 50 -91 50 -4 0 -14 6 -22 14 -9 7 -45 29 -81 49 -36 19
-105 58 -155 87 -49 29 -110 64 -135 78 -64 35 -232 131 -250 142 -8 5 -31 18
-50 28 -46 24 -84 46 -90 52 -5 5 -25 16 -130 73 -30 16 -62 36 -71 43 -8 8
-18 14 -21 14 -4 0 -45 23 -93 50 -48 28 -91 50 -96 50 -5 0 -9 4 -9 8 0 4
-12 13 -27 19 -27 11 -86 44 -163 91 -19 12 -46 27 -60 34 -14 7 -43 24 -65
37 -22 14 -53 33 -70 42 -16 9 -46 26 -65 37 -19 11 -63 35 -98 54 -35 18 -68
39 -74 45 -6 7 -14 13 -19 13 -5 0 -46 23 -93 50 -47 28 -89 50 -95 50 -6 0
-11 5 -11 10 0 6 -5 10 -10 10 -6 0 -38 17 -73 38 -34 20 -76 44 -92 52 -17 8
-41 22 -55 31 -23 16 -45 28 -167 95 -27 14 -52 29 -58 34 -5 4 -35 21 -66 37
l-56 31 0 -3544z"/>
</g>
</svg>
